<?xml version="1.0" encoding="UTF-8"?>
<!DOCTYPE svg PUBLIC "-//W3C//DTD SVG 1.1//EN" "http://www.w3.org/Graphics/SVG/1.1/DTD/svg11.dtd">
<!-- Creator: CorelDRAW -->
<svg xmlns="http://www.w3.org/2000/svg" xml:space="preserve" width="123.919mm" height="39.0375mm" version="1.1" style="shape-rendering:geometricPrecision; text-rendering:geometricPrecision; image-rendering:optimizeQuality; fill-rule:evenodd; clip-rule:evenodd"
viewBox="0 0 14049.35 4425.88"
 xmlns:xlink="http://www.w3.org/1999/xlink"
 xmlns:xodm="http://www.corel.com/coreldraw/odm/2003">
 <defs>
  <style type="text/css">
   <![CDATA[
    .fil0 {fill:#F2F2F2;fill-rule:nonzero}
   ]]>
  </style>
 </defs>
 <g id="Camada_x0020_1">
  <metadata id="CorelCorpID_0Corel-Layer"/>
  <g id="_2171423886000">
   <path class="fil0" d="M261.52 4214.51l178 0c135.97,0 241.66,-40.18 317.07,-120.53 75.41,-80.35 113.1,-189.12 113.1,-326.34 0,-137.21 -37.7,-245.99 -113.1,-326.34 -75.41,-80.35 -181.09,-120.52 -317.07,-120.52l-178 0 0 893.73zm178 -1095.83c207.67,0 375.48,59.33 503.42,178 127.93,118.67 191.9,275.66 191.9,470.96 0,195.31 -63.97,351.68 -191.9,469.11 -127.94,117.43 -295.75,176.15 -503.42,176.15l-439.44 0 0 -1294.22 439.44 0z"/>
   <polygon id="_1" class="fil0" points="1340.66,4412.9 1340.66,3118.68 1602.11,3118.68 1602.11,4412.9 "/>
   <path id="_2" class="fil0" d="M2299.28 3309.66c-51.91,0 -94.25,13.29 -127.01,39.86 -32.75,26.58 -49.14,63.35 -49.14,110.33 0,46.97 12.05,83.75 36.16,110.33 24.1,26.58 55.94,46.97 95.5,61.19 39.56,14.22 82.82,26.88 129.79,38 46.97,11.13 93.94,24.73 140.93,40.79 46.97,16.08 90.24,35.85 129.79,59.34 39.56,23.48 71.38,57.79 95.48,102.91 24.1,45.11 36.16,99.82 36.16,164.09 0,106.31 -42.33,197.78 -127,274.42 -84.68,76.64 -197.17,114.96 -337.47,114.96 -140.3,0 -253.71,-33.07 -340.24,-99.2 -86.53,-66.13 -129.79,-159.14 -129.79,-279.05l278.12 0c9.9,113.72 74.79,170.58 194.7,170.58 59.33,0 106.3,-15.45 140.91,-46.36 34.61,-30.91 51.91,-72 51.91,-123.31 0,-51.29 -22.87,-91.78 -68.6,-121.45 -45.74,-29.67 -101.05,-51.91 -165.95,-66.74 -64.9,-14.84 -130.1,-32.77 -195.62,-53.77 -65.52,-21.02 -121.14,-57.79 -166.88,-110.33 -45.74,-52.54 -68.6,-122.07 -68.6,-208.6 0,-117.43 42.64,-211.38 127.93,-281.84 85.29,-70.46 195.01,-105.69 329.13,-105.69 134.11,0 241.97,30.6 323.55,91.79 81.58,61.19 126.08,154.2 133.5,279.05l-285.55 0c-4.94,-49.44 -23.48,-88.69 -55.62,-117.74 -32.14,-29.05 -74.17,-43.57 -126.08,-43.57z"/>
   <polygon id="_3" class="fil0" points="2961.24,3318.92 2961.24,3118.68 3919.85,3118.68 3919.85,3318.92 3569.4,3318.92 3569.4,4412.9 3309.82,4412.9 3309.82,3318.92 "/>
   <path id="_4" class="fil0" d="M4381.54 3897.43l0 515.47 -261.44 0 0 -1294.22 476.53 0c149.58,0 264.84,37.39 345.81,112.17 80.97,74.78 121.45,167.18 121.45,277.2 0,81.58 -24.72,157.6 -74.17,228.07 -49.44,70.46 -127.32,118.67 -233.62,144.63l330.05 532.15 -309.65 0 -309.65 -515.47 -85.29 0zm0 -578.51l0 378.27 215.08 0c65.52,0 115.57,-17.01 150.19,-51 34.61,-33.99 51.91,-80.04 51.91,-138.14 0,-58.09 -17.3,-104.15 -51.91,-138.14 -34.61,-33.99 -84.67,-51 -150.19,-51l-215.08 0z"/>
   <polygon id="_5" class="fil0" points="5323.48,4412.9 5323.48,3118.68 5584.92,3118.68 5584.92,4412.9 "/>
   <path id="_6" class="fil0" d="M5863.05 3118.68l524.73 0c132.26,0 236.41,32.13 312.43,96.41 76.03,64.27 114.03,145.86 114.03,244.75 0,144.62 -84.06,241.66 -252.17,291.1 85.29,12.37 153.59,49.14 204.89,110.33 51.3,61.19 76.95,131.96 76.95,212.31 0,101.37 -38.32,183.26 -114.96,245.68 -76.63,62.42 -180.47,93.64 -311.5,93.64l-554.4 0 0 -1294.22zm261.44 200.24l0 335.61 235.48 0c58.09,0 104.15,-14.52 138.14,-43.57 33.99,-29.05 51,-70.16 51,-123.31 0,-53.15 -17.01,-94.57 -51,-124.23 -33.99,-29.67 -80.04,-44.51 -138.14,-44.51l-235.48 0zm0 893.73l263.29 0c58.1,0 104.76,-15.76 140,-47.28 35.23,-31.53 52.84,-75.1 52.84,-130.72 0,-55.63 -17.92,-99.51 -53.77,-131.65 -35.85,-32.14 -82.82,-48.21 -140.91,-48.21l-261.44 0 0 357.86z"/>
   <path id="_7" class="fil0" d="M7064.57 3915.98l0 -797.3 261.44 0 0 797.3c0,89 22.55,156.37 67.67,202.1 45.12,45.74 109.7,68.61 193.76,68.61 84.07,0 148.96,-22.88 194.7,-68.61 45.74,-45.74 68.6,-113.1 68.6,-202.1l0 -797.3 259.58 0 0 797.3c0,163.17 -51.3,288.95 -153.9,377.32 -102.6,88.39 -227.45,132.58 -374.55,132.58 -147.1,0 -270.09,-43.89 -368.99,-131.65 -98.89,-87.76 -148.33,-213.85 -148.33,-378.25z"/>
   <polygon id="_8" class="fil0" points="8382.89,4412.9 8382.89,3118.68 8644.34,3118.68 8644.34,4412.9 "/>
   <path id="_9" class="fil0" d="M9183.91 4214.51l178 0c135.97,0 241.66,-40.18 317.07,-120.53 75.41,-80.35 113.1,-189.12 113.1,-326.34 0,-137.21 -37.7,-245.99 -113.1,-326.34 -75.41,-80.35 -181.09,-120.52 -317.07,-120.52l-178 0 0 893.73zm178 -1095.83c207.67,0 375.48,59.33 503.42,178 127.93,118.67 191.9,275.66 191.9,470.96 0,195.31 -63.97,351.68 -191.9,469.11 -127.94,117.43 -295.75,176.15 -503.42,176.15l-439.44 0 0 -1294.22 439.44 0z"/>
   <path id="_10" class="fil0" d="M11138.23 4070.8c72.93,-77.25 109.4,-180.16 109.4,-308.72 0,-128.56 -36.46,-231.16 -109.4,-307.8 -72.93,-76.64 -168.11,-114.96 -285.55,-114.96 -117.43,0 -212.92,38.64 -286.48,115.89 -73.55,77.25 -110.31,179.86 -110.31,307.79 0,127.94 36.77,230.55 110.31,307.8 73.56,77.25 169.04,115.89 286.48,115.89 117.43,0 212.61,-38.64 285.55,-115.89zm-285.55 355.08c-186.65,0 -343.64,-62.42 -470.96,-187.27 -127.32,-124.85 -190.98,-283.38 -190.98,-475.61 0,-192.22 63.97,-350.75 191.91,-475.6 127.93,-124.85 284.92,-187.27 470.96,-187.27 186.04,0 342.72,62.42 470.04,187.27 127.32,124.85 190.98,283.38 190.98,475.6 0,192.23 -63.66,350.76 -190.98,475.61 -127.32,124.85 -284.31,187.27 -470.97,187.27z"/>
   <path id="_11" class="fil0" d="M11981.89 3897.43l0 515.47 -261.44 0 0 -1294.22 476.53 0c149.58,0 264.84,37.39 345.81,112.17 80.97,74.78 121.45,167.18 121.45,277.2 0,81.58 -24.72,157.6 -74.17,228.07 -49.44,70.46 -127.32,118.67 -233.62,144.63l330.05 532.15 -309.65 0 -309.65 -515.47 -85.29 0zm0 -578.51l0 378.27 215.08 0c65.52,0 115.57,-17.01 150.19,-51 34.61,-33.99 51.91,-80.04 51.91,-138.14 0,-58.09 -17.3,-104.15 -51.91,-138.14 -34.61,-33.99 -84.67,-51 -150.19,-51l-215.08 0z"/>
   <path id="_12" class="fil0" d="M13773.04 4412.9l-83.43 -242.9 -504.34 0 -83.44 242.9 -276.27 0 457.99 -1297.93 309.65 0 456.13 1297.93 -276.28 0zm-519.17 -443.15l368.98 0 -185.41 -539.58 -183.57 539.58z"/>
   <path class="fil0" d="M11323.16 2584.78l1833.72 -1809.34 0 1180.21 -853.47 0 551.11 629.13 1194.84 0 0 -2584.78 -1199.71 0 -2618.92 2584.78 1092.44 0zm-8777.41 0l0 -1945.89 746.18 0 0 1945.89 446.24 0 446.22 0 0 -2584.78 -4184.4 0 0 2584.78 897.35 0 0 -1945.89 746.17 0 0 1272.87 902.23 673.02zm1892.25 -2584.78l3199.27 0 0 634.02 -2297.04 0 0 331.62 2282.4 0 0 638.88 -2282.4 0 0 341.38 2292.15 0 0 638.88 -3194.38 0 0 -2584.78zm4327.91 2584.78l95.47 -1941.03 -975.39 0 0 -643.76 3199.26 0 0 643.76 -1326.51 0 0 1331.41 758.39 0 -616.22 607.66 -2.86 1.96 -1132.14 0z"/>
  </g>
 </g>
</svg>
